# Blender 3.5.1
# www.blender.org
mtllib rock.mtl
o Icosphere
v -0.001908 0.033289 -0.007033
v 0.021215 0.065116 0.003836
v 0.032311 0.024541 0.003622
v -0.001908 -0.019883 0.009542
v -0.059152 0.014690 0.012622
v -0.025461 0.065707 0.004470
v 0.038862 0.047978 0.037505
v 0.039278 -0.023400 0.065788
v -0.043743 -0.024292 0.088089
v -0.076016 0.057368 0.067045
v -0.001908 0.086636 0.041001
v -0.001908 0.033289 0.117602
v 0.013972 0.025404 -0.004289
v 0.017520 0.060029 -0.002919
v 0.037408 0.050685 0.001385
v -0.001908 0.086765 0.006978
v -0.016377 0.053204 -0.004062
v -0.001908 0.003343 -0.003380
v 0.020139 0.002943 0.003094
v -0.023276 0.026347 -0.004339
v -0.025061 0.001422 0.002633
v -0.050445 0.049060 0.006473
v 0.014864 0.081739 0.021936
v -0.016890 0.079399 0.016874
v 0.058033 0.033100 0.025561
v 0.032506 0.060402 0.024943
v 0.013544 -0.014269 0.019863
v 0.035431 0.006161 0.016424
v -0.041678 0.004395 0.016734
v -0.023084 -0.031886 0.029494
v -0.058959 0.074739 0.033886
v -0.049815 0.033289 0.016322
v 0.038926 0.089492 0.101058
v 0.048104 0.017039 0.049441
v -0.001908 -0.021308 0.046250
v -0.046214 0.018893 0.035401
v -0.027692 0.068778 0.028692
v 0.026129 0.042347 0.048071
v -0.001908 0.068613 0.043482
v 0.018107 0.005740 0.037438
v -0.021724 0.006014 0.053070
v -0.028556 0.041947 0.046139
vn 0.1801 0.0204 -0.9834
vn 0.4489 0.5784 -0.6811
vn 0.1107 -0.1203 -0.9865
vn -0.0855 -0.1206 -0.9890
vn -0.1397 0.0461 -0.9891
vn 0.5866 0.6885 -0.4264
vn 0.6731 -0.1923 -0.7141
vn 0.5627 -0.6773 -0.4739
vn -0.4237 -0.8472 -0.3207
vn -0.4424 0.5819 -0.6824
vn 0.7597 0.5894 -0.2747
vn 0.6731 -0.3424 -0.6556
vn 0.4060 -0.9067 -0.1146
vn -0.2620 -0.0601 0.9632
vn -0.3215 0.7384 -0.5928
vn 0.6358 -0.6465 0.4217
vn -0.4687 0.4171 0.7787
vn 0.6614 0.3091 0.6834
vn 0.1911 -0.5309 0.8256
vn -0.4935 0.1186 0.8616
vn -0.6522 0.6843 0.3261
vn -0.4278 0.5024 0.7514
vn 0.4791 0.4676 0.7428
vn -0.9354 -0.1132 0.3351
vn -0.5666 0.0509 0.8224
vn -0.0523 0.7711 0.6345
vn 0.1315 -0.9269 0.3514
vn 0.3653 0.0327 0.9303
vn -0.3467 0.5125 0.7856
vn 0.8997 -0.2915 0.3248
vn -0.2956 -0.2062 0.9328
vn 0.4530 0.4355 0.7779
vn 0.6127 0.7134 0.3400
vn -0.5923 -0.5256 0.6107
vn -0.8262 0.0768 0.5581
vn -0.6090 0.7799 0.1442
vn 0.2412 0.6018 0.7613
vn 0.2435 0.8020 0.5454
vn -0.8485 -0.4869 -0.2072
vn -0.9622 -0.2713 -0.0231
vn -0.9790 -0.1778 -0.0998
vn 0.2890 -0.9311 0.2226
vn 0.4368 -0.8994 0.0158
vn 0.0577 -0.9725 -0.2257
vn 0.9189 -0.3028 -0.2529
vn 0.7782 -0.6210 -0.0941
vn 0.6937 0.4301 0.5777
vn 0.9385 0.2886 -0.1894
vn 0.7576 0.5859 -0.2878
vn 0.1318 0.9819 -0.1363
vn -0.8888 -0.0019 -0.4582
vn -0.9752 -0.1439 -0.1681
vn -0.7979 0.2961 0.5251
vn -0.8318 -0.5063 -0.2276
vn -0.6044 -0.5216 -0.6023
vn -0.3390 -0.6027 -0.7224
vn 0.5684 -0.6856 -0.4548
vn 0.5585 -0.6787 -0.4769
vn 0.6559 -0.3533 -0.6671
vn 0.6941 0.6557 0.2973
vn 0.7259 0.6758 -0.1277
vn 0.6401 0.7480 -0.1753
vn -0.0276 0.9621 -0.2714
vn -0.1368 0.8826 0.4499
vn -0.5960 0.7111 -0.3730
vn -0.3152 0.3679 -0.8748
vn -0.3040 0.0879 -0.9486
vn -0.4110 -0.0587 -0.9097
vn -0.3545 -0.2282 -0.9068
vn -0.2242 -0.2476 -0.9426
vn -0.1834 -0.4779 -0.8590
vn 0.2405 -0.4719 -0.8482
vn 0.2701 -0.2329 -0.9342
vn 0.3810 -0.1926 -0.9043
vn -0.2672 0.4031 -0.8753
vn -0.0337 0.3254 -0.9450
vn 0.0032 0.1498 -0.9887
vn 0.3853 -0.1530 -0.9100
vn 0.2187 0.0162 -0.9757
vn 0.4268 0.5947 -0.6813
vt 0.181819 0.000000
vt 0.909091 0.000000
vt 0.727273 0.000000
vt 0.545455 0.000000
vt 0.363637 0.000000
vt 0.272728 0.157461
vt 1.000000 0.157461
vt 0.090910 0.157461
vt 0.818182 0.157461
vt 0.636364 0.157461
vt 0.454546 0.157461
vt 0.181819 0.314921
vt 0.000000 0.314921
vt 0.909091 0.314921
vt 0.727273 0.314921
vt 0.545455 0.314921
vt 0.363637 0.314921
vt 0.454546 0.472382
vt 0.636364 0.472382
vt 0.818182 0.472382
vt 0.090910 0.472382
vt 0.272728 0.472382
vt 0.954545 0.078731
vt 0.136365 0.078731
vt 0.318182 0.078731
vt 0.227273 0.078731
vt 0.181819 0.157461
vt 0.363637 0.157461
vt 0.500000 0.078731
vt 0.409092 0.078731
vt 0.772727 0.078731
vt 0.863636 0.078731
vt 0.909091 0.157461
vt 0.590909 0.078731
vt 0.681818 0.078731
vt 0.727273 0.157461
vt 0.545455 0.157461
vt 0.318182 0.236191
vt 0.409092 0.236191
vt 0.136365 0.236191
vt 0.227273 0.236191
vt 0.863636 0.236191
vt 0.045455 0.236191
vt 0.954545 0.236191
vt 0.681818 0.236191
vt 0.772727 0.236191
vt 0.500000 0.236191
vt 0.590909 0.236191
vt 0.272728 0.314921
vt 0.090910 0.314921
vt 0.818182 0.314921
vt 0.636364 0.314921
vt 0.454546 0.314921
vt 0.136365 0.393651
vt 0.227273 0.393651
vt 0.409092 0.393651
vt 0.318182 0.393651
vt 0.863636 0.393651
vt 0.045455 0.393651
vt 0.681818 0.393651
vt 0.772727 0.393651
vt 0.500000 0.393651
vt 0.590909 0.393651
s 0
usemtl Material.001
f 1/1/1 14/26/1 13/24/1
f 2/6/2 14/25/2 16/28/2
f 1/2/3 13/23/3 18/32/3
f 1/3/4 18/31/4 20/35/4
f 1/4/5 20/34/5 17/29/5
f 2/6/6 16/28/6 23/38/6
f 3/8/7 15/27/7 25/40/7
f 4/9/8 19/33/8 27/42/8
f 5/10/9 21/36/9 29/45/9
f 6/11/10 22/37/10 31/47/10
f 2/6/11 23/38/11 26/41/11
f 3/8/12 25/40/12 28/43/12
f 4/9/13 27/42/13 30/46/13
f 5/10/14 29/45/14 32/48/14
f 6/11/15 31/47/15 24/39/15
f 7/12/16 33/49/16 38/55/16
f 8/13/17 34/50/17 40/59/17
f 9/15/18 35/51/18 41/61/18
f 10/16/19 36/52/19 42/63/19
f 11/17/20 37/53/20 39/56/20
f 39/56/21 42/62/21 12/18/21
f 39/56/22 37/53/22 42/62/22
f 37/53/23 10/16/23 42/62/23
f 42/63/24 41/60/24 12/19/24
f 42/63/25 36/52/25 41/60/25
f 36/52/26 9/15/26 41/60/26
f 41/61/27 40/58/27 12/20/27
f 41/61/28 35/51/28 40/58/28
f 35/51/29 8/14/29 40/58/29
f 40/59/30 38/54/30 12/21/30
f 40/59/31 34/50/31 38/54/31
f 34/50/32 7/12/32 38/54/32
f 38/55/33 39/57/33 12/22/33
f 38/55/34 33/49/34 39/57/34
f 33/49/35 11/17/35 39/57/35
f 24/39/36 37/53/36 11/17/36
f 24/39/37 31/47/37 37/53/37
f 31/47/38 10/16/38 37/53/38
f 32/48/39 36/52/39 10/16/39
f 32/48/40 29/45/40 36/52/40
f 29/45/41 9/15/41 36/52/41
f 30/46/42 35/51/42 9/15/42
f 30/46/43 27/42/43 35/51/43
f 27/42/44 8/14/44 35/51/44
f 28/43/45 34/50/45 8/13/45
f 28/43/46 25/40/46 34/50/46
f 25/40/47 7/12/47 34/50/47
f 26/41/48 33/49/48 7/12/48
f 26/41/49 23/38/49 33/49/49
f 23/38/50 11/17/50 33/49/50
f 31/47/51 32/48/51 10/16/51
f 31/47/52 22/37/52 32/48/52
f 22/37/53 5/10/53 32/48/53
f 29/45/54 30/46/54 9/15/54
f 29/45/55 21/36/55 30/46/55
f 21/36/56 4/9/56 30/46/56
f 27/42/57 28/44/57 8/14/57
f 27/42/58 19/33/58 28/44/58
f 19/33/59 3/7/59 28/44/59
f 25/40/60 26/41/60 7/12/60
f 25/40/61 15/27/61 26/41/61
f 15/27/62 2/6/62 26/41/62
f 23/38/63 24/39/63 11/17/63
f 23/38/64 16/28/64 24/39/64
f 16/28/65 6/11/65 24/39/65
f 17/29/66 22/37/66 6/11/66
f 17/29/67 20/34/67 22/37/67
f 20/34/68 5/10/68 22/37/68
f 20/35/69 21/36/69 5/10/69
f 20/35/70 18/31/70 21/36/70
f 18/31/71 4/9/71 21/36/71
f 18/32/72 19/33/72 4/9/72
f 18/32/73 13/23/73 19/33/73
f 13/23/74 3/7/74 19/33/74
f 16/28/75 17/30/75 6/11/75
f 16/28/76 14/25/76 17/30/76
f 14/25/77 1/5/77 17/30/77
f 13/24/78 15/27/78 3/8/78
f 13/24/79 14/26/79 15/27/79
f 14/26/80 2/6/80 15/27/80
